<svg xmlns="http://www.w3.org/2000/svg" xmlns:xlink="http://www.w3.org/1999/xlink" width="500" zoomAndPan="magnify" viewBox="0 0 375 374.999991" height="500" preserveAspectRatio="xMidYMid meet" version="1.0"><defs><g/></defs><g fill="#ff00ff" fill-opacity="1"><g transform="translate(105.424238, 311.24998)"><g><path d="M 76.796875 3.59375 C 52.992188 2.59375 31.695312 -2.300781 12.90625 -11.09375 L 25.203125 -52.5 C 33.203125 -48.300781 41.847656 -45.097656 51.140625 -42.890625 C 60.441406 -40.691406 68.992188 -39.296875 76.796875 -38.703125 L 76.796875 -80.703125 L 72.296875 -81.90625 C 52.898438 -87.300781 38 -95.445312 27.59375 -106.34375 C 17.195312 -117.25 12 -130.101562 12 -144.90625 C 12 -161.300781 17.75 -174.695312 29.25 -185.09375 C 40.75 -195.5 56.597656 -201.601562 76.796875 -203.40625 L 76.796875 -231.90625 L 102.296875 -231.90625 L 102.296875 -203.40625 C 121.492188 -201.800781 139.992188 -196.898438 157.796875 -188.703125 L 142.203125 -148.5 C 132.203125 -155.101562 118.898438 -159.300781 102.296875 -161.09375 L 102.296875 -120.90625 L 105.90625 -120 C 124.695312 -115.195312 139.242188 -107.445312 149.546875 -96.75 C 159.847656 -86.050781 165 -73.300781 165 -58.5 C 165 -41.101562 159.546875 -27.101562 148.640625 -16.5 C 137.742188 -5.894531 122.296875 0.601562 102.296875 3 L 102.296875 25.5 L 76.796875 25.5 Z M 76.796875 -161.09375 C 66.398438 -158.894531 61.203125 -153.597656 61.203125 -145.203125 C 61.203125 -141.398438 62.300781 -138.25 64.5 -135.75 C 66.695312 -133.25 70.796875 -130.800781 76.796875 -128.40625 Z M 102.296875 -40.5 C 111.703125 -42.894531 116.40625 -47.695312 116.40625 -54.90625 C 116.40625 -59.101562 115.453125 -62.5 113.546875 -65.09375 C 111.648438 -67.695312 107.898438 -70.097656 102.296875 -72.296875 Z M 102.296875 -40.5 "/></g></g></g><g fill="#00ffff" fill-opacity="1"><g transform="translate(94.174239, 311.24998)"><g><path d="M 76.796875 3.59375 C 52.992188 2.59375 31.695312 -2.300781 12.90625 -11.09375 L 25.203125 -52.5 C 33.203125 -48.300781 41.847656 -45.097656 51.140625 -42.890625 C 60.441406 -40.691406 68.992188 -39.296875 76.796875 -38.703125 L 76.796875 -80.703125 L 72.296875 -81.90625 C 52.898438 -87.300781 38 -95.445312 27.59375 -106.34375 C 17.195312 -117.25 12 -130.101562 12 -144.90625 C 12 -161.300781 17.75 -174.695312 29.25 -185.09375 C 40.75 -195.5 56.597656 -201.601562 76.796875 -203.40625 L 76.796875 -231.90625 L 102.296875 -231.90625 L 102.296875 -203.40625 C 121.492188 -201.800781 139.992188 -196.898438 157.796875 -188.703125 L 142.203125 -148.5 C 132.203125 -155.101562 118.898438 -159.300781 102.296875 -161.09375 L 102.296875 -120.90625 L 105.90625 -120 C 124.695312 -115.195312 139.242188 -107.445312 149.546875 -96.75 C 159.847656 -86.050781 165 -73.300781 165 -58.5 C 165 -41.101562 159.546875 -27.101562 148.640625 -16.5 C 137.742188 -5.894531 122.296875 0.601562 102.296875 3 L 102.296875 25.5 L 76.796875 25.5 Z M 76.796875 -161.09375 C 66.398438 -158.894531 61.203125 -153.597656 61.203125 -145.203125 C 61.203125 -141.398438 62.300781 -138.25 64.5 -135.75 C 66.695312 -133.25 70.796875 -130.800781 76.796875 -128.40625 Z M 102.296875 -40.5 C 111.703125 -42.894531 116.40625 -47.695312 116.40625 -54.90625 C 116.40625 -59.101562 115.453125 -62.5 113.546875 -65.09375 C 111.648438 -67.695312 107.898438 -70.097656 102.296875 -72.296875 Z M 102.296875 -40.5 "/></g></g></g><g fill="#ff5757" fill-opacity="1"><g transform="translate(99.799239, 311.24998)"><g><path d="M 76.796875 3.59375 C 52.992188 2.59375 31.695312 -2.300781 12.90625 -11.09375 L 25.203125 -52.5 C 33.203125 -48.300781 41.847656 -45.097656 51.140625 -42.890625 C 60.441406 -40.691406 68.992188 -39.296875 76.796875 -38.703125 L 76.796875 -80.703125 L 72.296875 -81.90625 C 52.898438 -87.300781 38 -95.445312 27.59375 -106.34375 C 17.195312 -117.25 12 -130.101562 12 -144.90625 C 12 -161.300781 17.75 -174.695312 29.25 -185.09375 C 40.75 -195.5 56.597656 -201.601562 76.796875 -203.40625 L 76.796875 -231.90625 L 102.296875 -231.90625 L 102.296875 -203.40625 C 121.492188 -201.800781 139.992188 -196.898438 157.796875 -188.703125 L 142.203125 -148.5 C 132.203125 -155.101562 118.898438 -159.300781 102.296875 -161.09375 L 102.296875 -120.90625 L 105.90625 -120 C 124.695312 -115.195312 139.242188 -107.445312 149.546875 -96.75 C 159.847656 -86.050781 165 -73.300781 165 -58.5 C 165 -41.101562 159.546875 -27.101562 148.640625 -16.5 C 137.742188 -5.894531 122.296875 0.601562 102.296875 3 L 102.296875 25.5 L 76.796875 25.5 Z M 76.796875 -161.09375 C 66.398438 -158.894531 61.203125 -153.597656 61.203125 -145.203125 C 61.203125 -141.398438 62.300781 -138.25 64.5 -135.75 C 66.695312 -133.25 70.796875 -130.800781 76.796875 -128.40625 Z M 102.296875 -40.5 C 111.703125 -42.894531 116.40625 -47.695312 116.40625 -54.90625 C 116.40625 -59.101562 115.453125 -62.5 113.546875 -65.09375 C 111.648438 -67.695312 107.898438 -70.097656 102.296875 -72.296875 Z M 102.296875 -40.5 "/></g></g></g><g fill="#ff00ff" fill-opacity="1"><g transform="translate(279.424227, 311.24998)"><g/></g></g><g fill="#00ffff" fill-opacity="1"><g transform="translate(268.174228, 311.24998)"><g/></g></g><g fill="#ff5757" fill-opacity="1"><g transform="translate(273.799227, 311.24998)"><g/></g></g></svg>