<svg xmlns="http://www.w3.org/2000/svg" xmlns:xlink="http://www.w3.org/1999/xlink" width="500" zoomAndPan="magnify" viewBox="0 0 375 374.999991" height="500" preserveAspectRatio="xMidYMid meet" version="1.0"><defs><g/></defs><g fill="#ff00ff" fill-opacity="1"><g transform="translate(92.390624, 203.249987)"><g><path d="M 10.234375 0.484375 C 7.066406 0.347656 4.226562 -0.304688 1.71875 -1.484375 L 3.359375 -7 C 4.421875 -6.4375 5.570312 -6.007812 6.8125 -5.71875 C 8.0625 -5.425781 9.203125 -5.238281 10.234375 -5.15625 L 10.234375 -10.765625 L 9.640625 -10.921875 C 7.054688 -11.640625 5.066406 -12.722656 3.671875 -14.171875 C 2.285156 -15.628906 1.59375 -17.34375 1.59375 -19.3125 C 1.59375 -21.5 2.359375 -23.285156 3.890625 -24.671875 C 5.429688 -26.066406 7.546875 -26.882812 10.234375 -27.125 L 10.234375 -30.921875 L 13.640625 -30.921875 L 13.640625 -27.125 C 16.203125 -26.90625 18.671875 -26.25 21.046875 -25.15625 L 18.953125 -19.796875 C 17.617188 -20.679688 15.847656 -21.242188 13.640625 -21.484375 L 13.640625 -16.125 L 14.125 -16 C 16.625 -15.363281 18.5625 -14.332031 19.9375 -12.90625 C 21.3125 -11.476562 22 -9.773438 22 -7.796875 C 22 -5.472656 21.269531 -3.601562 19.8125 -2.1875 C 18.363281 -0.78125 16.304688 0.0820312 13.640625 0.40625 L 13.640625 3.40625 L 10.234375 3.40625 Z M 10.234375 -21.484375 C 8.847656 -21.191406 8.15625 -20.484375 8.15625 -19.359375 C 8.15625 -18.847656 8.300781 -18.425781 8.59375 -18.09375 C 8.894531 -17.757812 9.441406 -17.4375 10.234375 -17.125 Z M 13.640625 -5.40625 C 14.890625 -5.71875 15.515625 -6.351562 15.515625 -7.3125 C 15.515625 -7.875 15.390625 -8.328125 15.140625 -8.671875 C 14.890625 -9.023438 14.390625 -9.347656 13.640625 -9.640625 Z M 13.640625 -5.40625 "/></g></g></g><g fill="#ff00ff" fill-opacity="1"><g transform="translate(115.588323, 203.249987)"><g><path d="M 7.796875 -27.515625 L 19.953125 -27.515625 L 27.921875 0 L 18.515625 0 L 17.484375 -5.28125 L 10.359375 -5.28125 L 9.203125 0 L 0.203125 0 Z M 16.515625 -10.203125 L 13.921875 -22.234375 L 11.203125 -10.203125 Z M 16.515625 -10.203125 "/></g></g></g><g fill="#ff00ff" fill-opacity="1"><g transform="translate(143.545539, 203.249987)"><g><path d="M 0.078125 -27.515625 L 9.125 -27.515625 L 13.359375 -10.359375 L 17.59375 -27.515625 L 27.046875 -27.515625 L 18.4375 0 L 8.234375 0 Z M 0.078125 -27.515625 "/></g></g></g><g fill="#ff00ff" fill-opacity="1"><g transform="translate(170.422868, 203.249987)"><g><path d="M 2.59375 -27.515625 L 11.84375 -27.515625 L 11.84375 0 L 2.59375 0 Z M 2.59375 -27.515625 "/></g></g></g><g fill="#ff00ff" fill-opacity="1"><g transform="translate(184.861431, 203.249987)"><g><path d="M 15.953125 0.640625 C 13.078125 0.640625 10.523438 0.0234375 8.296875 -1.203125 C 6.066406 -2.429688 4.332031 -4.128906 3.09375 -6.296875 C 1.851562 -8.472656 1.234375 -10.945312 1.234375 -13.71875 C 1.234375 -16.519531 1.851562 -19.015625 3.09375 -21.203125 C 4.332031 -23.390625 6.066406 -25.085938 8.296875 -26.296875 C 10.523438 -27.515625 13.078125 -28.125 15.953125 -28.125 C 18.835938 -28.125 21.390625 -27.515625 23.609375 -26.296875 C 25.835938 -25.085938 27.570312 -23.394531 28.8125 -21.21875 C 30.0625 -19.039062 30.6875 -16.539062 30.6875 -13.71875 C 30.6875 -10.945312 30.0625 -8.472656 28.8125 -6.296875 C 27.570312 -4.128906 25.832031 -2.429688 23.59375 -1.203125 C 21.351562 0.0234375 18.804688 0.640625 15.953125 0.640625 Z M 15.953125 -6.640625 C 17.640625 -6.640625 19.019531 -7.289062 20.09375 -8.59375 C 21.175781 -9.90625 21.71875 -11.628906 21.71875 -13.765625 C 21.71875 -15.171875 21.46875 -16.425781 20.96875 -17.53125 C 20.476562 -18.644531 19.789062 -19.515625 18.90625 -20.140625 C 18.03125 -20.765625 17.035156 -21.078125 15.921875 -21.078125 C 14.828125 -21.078125 13.835938 -20.765625 12.953125 -20.140625 C 12.078125 -19.515625 11.398438 -18.644531 10.921875 -17.53125 C 10.441406 -16.425781 10.203125 -15.171875 10.203125 -13.765625 C 10.203125 -11.628906 10.734375 -9.90625 11.796875 -8.59375 C 12.867188 -7.289062 14.253906 -6.640625 15.953125 -6.640625 Z M 15.953125 -6.640625 "/></g></g></g><g fill="#ff00ff" fill-opacity="1"><g transform="translate(216.778258, 203.249987)"><g><path d="M 15.953125 0.640625 C 13.316406 0.640625 10.960938 0.132812 8.890625 -0.875 C 6.828125 -1.894531 5.222656 -3.316406 4.078125 -5.140625 C 2.929688 -6.960938 2.359375 -9.050781 2.359375 -11.40625 L 2.359375 -27.515625 L 11.40625 -27.515625 L 11.40625 -11.40625 C 11.40625 -9.800781 11.789062 -8.597656 12.5625 -7.796875 C 13.332031 -6.992188 14.460938 -6.59375 15.953125 -6.59375 C 17.453125 -6.59375 18.585938 -7 19.359375 -7.8125 C 20.128906 -8.632812 20.515625 -9.832031 20.515625 -11.40625 L 20.515625 -27.515625 L 29.5625 -27.515625 L 29.5625 -11.40625 C 29.5625 -9.050781 28.988281 -6.960938 27.84375 -5.140625 C 26.695312 -3.316406 25.085938 -1.894531 23.015625 -0.875 C 20.953125 0.132812 18.597656 0.640625 15.953125 0.640625 Z M 15.953125 0.640625 "/></g></g></g><g fill="#ff00ff" fill-opacity="1"><g transform="translate(248.695084, 203.249987)"><g><path d="M 23.4375 0.640625 C 18.425781 0.640625 15.359375 -1.675781 14.234375 -6.3125 L 13.234375 -10.4375 L 11.359375 -10.4375 L 11.359375 0 L 2.59375 0 L 2.59375 -27.515625 L 14.71875 -27.515625 C 17.007812 -27.515625 19.03125 -27.175781 20.78125 -26.5 C 22.53125 -25.820312 23.882812 -24.867188 24.84375 -23.640625 C 25.800781 -22.410156 26.28125 -21 26.28125 -19.40625 C 26.28125 -17.613281 25.847656 -16.109375 24.984375 -14.890625 C 24.117188 -13.679688 22.773438 -12.691406 20.953125 -11.921875 C 21.140625 -10.910156 21.351562 -9.988281 21.59375 -9.15625 C 21.914062 -8.144531 22.359375 -7.4375 22.921875 -7.03125 C 23.484375 -6.632812 24.296875 -6.4375 25.359375 -6.4375 C 25.734375 -6.4375 26.320312 -6.488281 27.125 -6.59375 L 27.125 -0.078125 C 25.863281 0.398438 24.632812 0.640625 23.4375 0.640625 Z M 12.875 -16.046875 C 14.851562 -16.046875 16.25 -16.265625 17.0625 -16.703125 C 17.875 -17.140625 18.28125 -17.890625 18.28125 -18.953125 C 18.28125 -19.859375 17.945312 -20.519531 17.28125 -20.9375 C 16.613281 -21.351562 15.5625 -21.5625 14.125 -21.5625 L 11.359375 -21.5625 L 11.359375 -16.046875 Z M 12.875 -16.046875 "/></g></g></g><g fill="#00ffff" fill-opacity="1"><g transform="translate(90.890624, 203.249987)"><g><path d="M 10.234375 0.484375 C 7.066406 0.347656 4.226562 -0.304688 1.71875 -1.484375 L 3.359375 -7 C 4.421875 -6.4375 5.570312 -6.007812 6.8125 -5.71875 C 8.0625 -5.425781 9.203125 -5.238281 10.234375 -5.15625 L 10.234375 -10.765625 L 9.640625 -10.921875 C 7.054688 -11.640625 5.066406 -12.722656 3.671875 -14.171875 C 2.285156 -15.628906 1.59375 -17.34375 1.59375 -19.3125 C 1.59375 -21.5 2.359375 -23.285156 3.890625 -24.671875 C 5.429688 -26.066406 7.546875 -26.882812 10.234375 -27.125 L 10.234375 -30.921875 L 13.640625 -30.921875 L 13.640625 -27.125 C 16.203125 -26.90625 18.671875 -26.25 21.046875 -25.15625 L 18.953125 -19.796875 C 17.617188 -20.679688 15.847656 -21.242188 13.640625 -21.484375 L 13.640625 -16.125 L 14.125 -16 C 16.625 -15.363281 18.5625 -14.332031 19.9375 -12.90625 C 21.3125 -11.476562 22 -9.773438 22 -7.796875 C 22 -5.472656 21.269531 -3.601562 19.8125 -2.1875 C 18.363281 -0.78125 16.304688 0.0820312 13.640625 0.40625 L 13.640625 3.40625 L 10.234375 3.40625 Z M 10.234375 -21.484375 C 8.847656 -21.191406 8.15625 -20.484375 8.15625 -19.359375 C 8.15625 -18.847656 8.300781 -18.425781 8.59375 -18.09375 C 8.894531 -17.757812 9.441406 -17.4375 10.234375 -17.125 Z M 13.640625 -5.40625 C 14.890625 -5.71875 15.515625 -6.351562 15.515625 -7.3125 C 15.515625 -7.875 15.390625 -8.328125 15.140625 -8.671875 C 14.890625 -9.023438 14.390625 -9.347656 13.640625 -9.640625 Z M 13.640625 -5.40625 "/></g></g></g><g fill="#00ffff" fill-opacity="1"><g transform="translate(114.088323, 203.249987)"><g><path d="M 7.796875 -27.515625 L 19.953125 -27.515625 L 27.921875 0 L 18.515625 0 L 17.484375 -5.28125 L 10.359375 -5.28125 L 9.203125 0 L 0.203125 0 Z M 16.515625 -10.203125 L 13.921875 -22.234375 L 11.203125 -10.203125 Z M 16.515625 -10.203125 "/></g></g></g><g fill="#00ffff" fill-opacity="1"><g transform="translate(142.045539, 203.249987)"><g><path d="M 0.078125 -27.515625 L 9.125 -27.515625 L 13.359375 -10.359375 L 17.59375 -27.515625 L 27.046875 -27.515625 L 18.4375 0 L 8.234375 0 Z M 0.078125 -27.515625 "/></g></g></g><g fill="#00ffff" fill-opacity="1"><g transform="translate(168.922868, 203.249987)"><g><path d="M 2.59375 -27.515625 L 11.84375 -27.515625 L 11.84375 0 L 2.59375 0 Z M 2.59375 -27.515625 "/></g></g></g><g fill="#00ffff" fill-opacity="1"><g transform="translate(183.361432, 203.249987)"><g><path d="M 15.953125 0.640625 C 13.078125 0.640625 10.523438 0.0234375 8.296875 -1.203125 C 6.066406 -2.429688 4.332031 -4.128906 3.09375 -6.296875 C 1.851562 -8.472656 1.234375 -10.945312 1.234375 -13.71875 C 1.234375 -16.519531 1.851562 -19.015625 3.09375 -21.203125 C 4.332031 -23.390625 6.066406 -25.085938 8.296875 -26.296875 C 10.523438 -27.515625 13.078125 -28.125 15.953125 -28.125 C 18.835938 -28.125 21.390625 -27.515625 23.609375 -26.296875 C 25.835938 -25.085938 27.570312 -23.394531 28.8125 -21.21875 C 30.0625 -19.039062 30.6875 -16.539062 30.6875 -13.71875 C 30.6875 -10.945312 30.0625 -8.472656 28.8125 -6.296875 C 27.570312 -4.128906 25.832031 -2.429688 23.59375 -1.203125 C 21.351562 0.0234375 18.804688 0.640625 15.953125 0.640625 Z M 15.953125 -6.640625 C 17.640625 -6.640625 19.019531 -7.289062 20.09375 -8.59375 C 21.175781 -9.90625 21.71875 -11.628906 21.71875 -13.765625 C 21.71875 -15.171875 21.46875 -16.425781 20.96875 -17.53125 C 20.476562 -18.644531 19.789062 -19.515625 18.90625 -20.140625 C 18.03125 -20.765625 17.035156 -21.078125 15.921875 -21.078125 C 14.828125 -21.078125 13.835938 -20.765625 12.953125 -20.140625 C 12.078125 -19.515625 11.398438 -18.644531 10.921875 -17.53125 C 10.441406 -16.425781 10.203125 -15.171875 10.203125 -13.765625 C 10.203125 -11.628906 10.734375 -9.90625 11.796875 -8.59375 C 12.867188 -7.289062 14.253906 -6.640625 15.953125 -6.640625 Z M 15.953125 -6.640625 "/></g></g></g><g fill="#00ffff" fill-opacity="1"><g transform="translate(215.278258, 203.249987)"><g><path d="M 15.953125 0.640625 C 13.316406 0.640625 10.960938 0.132812 8.890625 -0.875 C 6.828125 -1.894531 5.222656 -3.316406 4.078125 -5.140625 C 2.929688 -6.960938 2.359375 -9.050781 2.359375 -11.40625 L 2.359375 -27.515625 L 11.40625 -27.515625 L 11.40625 -11.40625 C 11.40625 -9.800781 11.789062 -8.597656 12.5625 -7.796875 C 13.332031 -6.992188 14.460938 -6.59375 15.953125 -6.59375 C 17.453125 -6.59375 18.585938 -7 19.359375 -7.8125 C 20.128906 -8.632812 20.515625 -9.832031 20.515625 -11.40625 L 20.515625 -27.515625 L 29.5625 -27.515625 L 29.5625 -11.40625 C 29.5625 -9.050781 28.988281 -6.960938 27.84375 -5.140625 C 26.695312 -3.316406 25.085938 -1.894531 23.015625 -0.875 C 20.953125 0.132812 18.597656 0.640625 15.953125 0.640625 Z M 15.953125 0.640625 "/></g></g></g><g fill="#00ffff" fill-opacity="1"><g transform="translate(247.195084, 203.249987)"><g><path d="M 23.4375 0.640625 C 18.425781 0.640625 15.359375 -1.675781 14.234375 -6.3125 L 13.234375 -10.4375 L 11.359375 -10.4375 L 11.359375 0 L 2.59375 0 L 2.59375 -27.515625 L 14.71875 -27.515625 C 17.007812 -27.515625 19.03125 -27.175781 20.78125 -26.5 C 22.53125 -25.820312 23.882812 -24.867188 24.84375 -23.640625 C 25.800781 -22.410156 26.28125 -21 26.28125 -19.40625 C 26.28125 -17.613281 25.847656 -16.109375 24.984375 -14.890625 C 24.117188 -13.679688 22.773438 -12.691406 20.953125 -11.921875 C 21.140625 -10.910156 21.351562 -9.988281 21.59375 -9.15625 C 21.914062 -8.144531 22.359375 -7.4375 22.921875 -7.03125 C 23.484375 -6.632812 24.296875 -6.4375 25.359375 -6.4375 C 25.734375 -6.4375 26.320312 -6.488281 27.125 -6.59375 L 27.125 -0.078125 C 25.863281 0.398438 24.632812 0.640625 23.4375 0.640625 Z M 12.875 -16.046875 C 14.851562 -16.046875 16.25 -16.265625 17.0625 -16.703125 C 17.875 -17.140625 18.28125 -17.890625 18.28125 -18.953125 C 18.28125 -19.859375 17.945312 -20.519531 17.28125 -20.9375 C 16.613281 -21.351562 15.5625 -21.5625 14.125 -21.5625 L 11.359375 -21.5625 L 11.359375 -16.046875 Z M 12.875 -16.046875 "/></g></g></g><g fill="#ff5757" fill-opacity="1"><g transform="translate(91.640624, 203.249987)"><g><path d="M 10.234375 0.484375 C 7.066406 0.347656 4.226562 -0.304688 1.71875 -1.484375 L 3.359375 -7 C 4.421875 -6.4375 5.570312 -6.007812 6.8125 -5.71875 C 8.0625 -5.425781 9.203125 -5.238281 10.234375 -5.15625 L 10.234375 -10.765625 L 9.640625 -10.921875 C 7.054688 -11.640625 5.066406 -12.722656 3.671875 -14.171875 C 2.285156 -15.628906 1.59375 -17.34375 1.59375 -19.3125 C 1.59375 -21.5 2.359375 -23.285156 3.890625 -24.671875 C 5.429688 -26.066406 7.546875 -26.882812 10.234375 -27.125 L 10.234375 -30.921875 L 13.640625 -30.921875 L 13.640625 -27.125 C 16.203125 -26.90625 18.671875 -26.25 21.046875 -25.15625 L 18.953125 -19.796875 C 17.617188 -20.679688 15.847656 -21.242188 13.640625 -21.484375 L 13.640625 -16.125 L 14.125 -16 C 16.625 -15.363281 18.5625 -14.332031 19.9375 -12.90625 C 21.3125 -11.476562 22 -9.773438 22 -7.796875 C 22 -5.472656 21.269531 -3.601562 19.8125 -2.1875 C 18.363281 -0.78125 16.304688 0.0820312 13.640625 0.40625 L 13.640625 3.40625 L 10.234375 3.40625 Z M 10.234375 -21.484375 C 8.847656 -21.191406 8.15625 -20.484375 8.15625 -19.359375 C 8.15625 -18.847656 8.300781 -18.425781 8.59375 -18.09375 C 8.894531 -17.757812 9.441406 -17.4375 10.234375 -17.125 Z M 13.640625 -5.40625 C 14.890625 -5.71875 15.515625 -6.351562 15.515625 -7.3125 C 15.515625 -7.875 15.390625 -8.328125 15.140625 -8.671875 C 14.890625 -9.023438 14.390625 -9.347656 13.640625 -9.640625 Z M 13.640625 -5.40625 "/></g></g></g><g fill="#ff5757" fill-opacity="1"><g transform="translate(114.838323, 203.249987)"><g><path d="M 7.796875 -27.515625 L 19.953125 -27.515625 L 27.921875 0 L 18.515625 0 L 17.484375 -5.28125 L 10.359375 -5.28125 L 9.203125 0 L 0.203125 0 Z M 16.515625 -10.203125 L 13.921875 -22.234375 L 11.203125 -10.203125 Z M 16.515625 -10.203125 "/></g></g></g><g fill="#ff5757" fill-opacity="1"><g transform="translate(142.795539, 203.249987)"><g><path d="M 0.078125 -27.515625 L 9.125 -27.515625 L 13.359375 -10.359375 L 17.59375 -27.515625 L 27.046875 -27.515625 L 18.4375 0 L 8.234375 0 Z M 0.078125 -27.515625 "/></g></g></g><g fill="#ff5757" fill-opacity="1"><g transform="translate(169.672868, 203.249987)"><g><path d="M 2.59375 -27.515625 L 11.84375 -27.515625 L 11.84375 0 L 2.59375 0 Z M 2.59375 -27.515625 "/></g></g></g><g fill="#ff5757" fill-opacity="1"><g transform="translate(184.111432, 203.249987)"><g><path d="M 15.953125 0.640625 C 13.078125 0.640625 10.523438 0.0234375 8.296875 -1.203125 C 6.066406 -2.429688 4.332031 -4.128906 3.09375 -6.296875 C 1.851562 -8.472656 1.234375 -10.945312 1.234375 -13.71875 C 1.234375 -16.519531 1.851562 -19.015625 3.09375 -21.203125 C 4.332031 -23.390625 6.066406 -25.085938 8.296875 -26.296875 C 10.523438 -27.515625 13.078125 -28.125 15.953125 -28.125 C 18.835938 -28.125 21.390625 -27.515625 23.609375 -26.296875 C 25.835938 -25.085938 27.570312 -23.394531 28.8125 -21.21875 C 30.0625 -19.039062 30.6875 -16.539062 30.6875 -13.71875 C 30.6875 -10.945312 30.0625 -8.472656 28.8125 -6.296875 C 27.570312 -4.128906 25.832031 -2.429688 23.59375 -1.203125 C 21.351562 0.0234375 18.804688 0.640625 15.953125 0.640625 Z M 15.953125 -6.640625 C 17.640625 -6.640625 19.019531 -7.289062 20.09375 -8.59375 C 21.175781 -9.90625 21.71875 -11.628906 21.71875 -13.765625 C 21.71875 -15.171875 21.46875 -16.425781 20.96875 -17.53125 C 20.476562 -18.644531 19.789062 -19.515625 18.90625 -20.140625 C 18.03125 -20.765625 17.035156 -21.078125 15.921875 -21.078125 C 14.828125 -21.078125 13.835938 -20.765625 12.953125 -20.140625 C 12.078125 -19.515625 11.398438 -18.644531 10.921875 -17.53125 C 10.441406 -16.425781 10.203125 -15.171875 10.203125 -13.765625 C 10.203125 -11.628906 10.734375 -9.90625 11.796875 -8.59375 C 12.867188 -7.289062 14.253906 -6.640625 15.953125 -6.640625 Z M 15.953125 -6.640625 "/></g></g></g><g fill="#ff5757" fill-opacity="1"><g transform="translate(216.028258, 203.249987)"><g><path d="M 15.953125 0.640625 C 13.316406 0.640625 10.960938 0.132812 8.890625 -0.875 C 6.828125 -1.894531 5.222656 -3.316406 4.078125 -5.140625 C 2.929688 -6.960938 2.359375 -9.050781 2.359375 -11.40625 L 2.359375 -27.515625 L 11.40625 -27.515625 L 11.40625 -11.40625 C 11.40625 -9.800781 11.789062 -8.597656 12.5625 -7.796875 C 13.332031 -6.992188 14.460938 -6.59375 15.953125 -6.59375 C 17.453125 -6.59375 18.585938 -7 19.359375 -7.8125 C 20.128906 -8.632812 20.515625 -9.832031 20.515625 -11.40625 L 20.515625 -27.515625 L 29.5625 -27.515625 L 29.5625 -11.40625 C 29.5625 -9.050781 28.988281 -6.960938 27.84375 -5.140625 C 26.695312 -3.316406 25.085938 -1.894531 23.015625 -0.875 C 20.953125 0.132812 18.597656 0.640625 15.953125 0.640625 Z M 15.953125 0.640625 "/></g></g></g><g fill="#ff5757" fill-opacity="1"><g transform="translate(247.945084, 203.249987)"><g><path d="M 23.4375 0.640625 C 18.425781 0.640625 15.359375 -1.675781 14.234375 -6.3125 L 13.234375 -10.4375 L 11.359375 -10.4375 L 11.359375 0 L 2.59375 0 L 2.59375 -27.515625 L 14.71875 -27.515625 C 17.007812 -27.515625 19.03125 -27.175781 20.78125 -26.5 C 22.53125 -25.820312 23.882812 -24.867188 24.84375 -23.640625 C 25.800781 -22.410156 26.28125 -21 26.28125 -19.40625 C 26.28125 -17.613281 25.847656 -16.109375 24.984375 -14.890625 C 24.117188 -13.679688 22.773438 -12.691406 20.953125 -11.921875 C 21.140625 -10.910156 21.351562 -9.988281 21.59375 -9.15625 C 21.914062 -8.144531 22.359375 -7.4375 22.921875 -7.03125 C 23.484375 -6.632812 24.296875 -6.4375 25.359375 -6.4375 C 25.734375 -6.4375 26.320312 -6.488281 27.125 -6.59375 L 27.125 -0.078125 C 25.863281 0.398438 24.632812 0.640625 23.4375 0.640625 Z M 12.875 -16.046875 C 14.851562 -16.046875 16.25 -16.265625 17.0625 -16.703125 C 17.875 -17.140625 18.28125 -17.890625 18.28125 -18.953125 C 18.28125 -19.859375 17.945312 -20.519531 17.28125 -20.9375 C 16.613281 -21.351562 15.5625 -21.5625 14.125 -21.5625 L 11.359375 -21.5625 L 11.359375 -16.046875 Z M 12.875 -16.046875 "/></g></g></g><g fill="#ff00ff" fill-opacity="1"><g transform="translate(276.621084, 203.249987)"><g/></g></g><g fill="#00ffff" fill-opacity="1"><g transform="translate(275.121085, 203.249987)"><g/></g></g><g fill="#ff5757" fill-opacity="1"><g transform="translate(275.871084, 203.249987)"><g/></g></g></svg>